<svg id="Layer_1" data-name="Layer 1" xmlns="http://www.w3.org/2000/svg" viewBox="0 0 665 996.84"><defs><style>.cls-1{fill:#2a385d;}.cls-2{fill:#fff;}</style></defs><path class="cls-1" d="M667,333q0,5.46-.18,10.87A331.65,331.65,0,0,1,657,414.22q-2.85,10.9-6.46,22.36C586.05,642.27,352.19,972.48,335,996.6l-.5.7-.5-.7c-17.19-24.12-251-354.33-315.53-560q-3.6-11.44-6.46-22.36a331.65,331.65,0,0,1-9.83-70.39Q2,338.42,2,333C2,149.32,150.87.46,334.5.46S667,149.32,667,333Z" transform="translate(-2 -0.46)"/><path class="cls-1" d="M2.18,343.83A331.65,331.65,0,0,0,12,414.22C5.09,387.86,1.5,364.05,2.18,343.83Z" transform="translate(-2 -0.46)"/><path class="cls-1" d="M657,414.22a331.65,331.65,0,0,0,9.83-70.39C667.5,364.05,663.91,387.86,657,414.22Z" transform="translate(-2 -0.46)"/><path class="cls-1" d="M12,414.22q2.85,10.9,6.46,22.36Q14.85,425.57,12,414.22Z" transform="translate(-2 -0.46)"/><path class="cls-1" d="M657,414.22q-2.84,11.34-6.46,22.36Q654.13,425.14,657,414.22Z" transform="translate(-2 -0.46)"/><g id="S"><path class="cls-2" d="M584.72,254.9H571.64l-2.53-23.63v-3.38a12.74,12.74,0,0,0,0-3.8v-3.37a23.26,23.26,0,0,1-2.11-3.38h-2.53l-3-2.53-3.37-2.53-7.6-5.91-7.59-3.8-9.29-2.95H497.37a72.23,72.23,0,0,0-36.71,17.72,42.23,42.23,0,0,0-12.23,18.15A63.09,63.09,0,0,0,444.21,260a56.16,56.16,0,0,0,3.37,19,42.26,42.26,0,0,0,11,14.76,58.37,58.37,0,0,0,21.1,11,180.35,180.35,0,0,0,32.91,6.75,289.81,289.81,0,0,1,39.25,6.75A126.65,126.65,0,0,1,582.19,330a42.25,42.25,0,0,1,19.41,19,67.2,67.2,0,0,1,6.33,30.38,100.49,100.49,0,0,1-9.71,45.15,81.37,81.37,0,0,1-27.85,32.07,160.87,160.87,0,0,1-40.08,19.83,145.67,145.67,0,0,1-42.2,6.75h-4.64a105.17,105.17,0,0,1-16.46,0,75.44,75.44,0,0,1-16.45-2.95H411.72v-8.44h0v-2.53h0a54,54,0,0,1,0-8.44V403h13.5l3.38,27.43a20.2,20.2,0,0,0,6.33,13.08,42.13,42.13,0,0,0,16,11,93.2,93.2,0,0,0,21.52,7.59,103.73,103.73,0,0,0,23.63,2.54,79.82,79.82,0,0,0,26.58-4.22,80.86,80.86,0,0,0,24-12.24,50.72,50.72,0,0,0,17.73-20.25,62,62,0,0,0,5.48-27,55.74,55.74,0,0,0-2.11-25.74,33.77,33.77,0,0,0-15.61-16A115.53,115.53,0,0,0,529,349.83a192.85,192.85,0,0,0-28.69-5.48,239.87,239.87,0,0,1-42.2-8.44,107.43,107.43,0,0,1-27.85-13.5,47.41,47.41,0,0,1-15.61-20.68,71.56,71.56,0,0,1-5.48-28.27,96.67,96.67,0,0,1,7.17-38,70.29,70.29,0,0,1,21.1-27.43A147,147,0,0,1,467,189.91a126.92,126.92,0,0,1,32.92-9.28H532.4a102.28,102.28,0,0,1,15.61,3L561.93,187l12.24,4.22h12.66c0,3.8,0,7.17-2.11,10.55v33.33a5.41,5.41,0,0,0,0,2.53V254.9Z" transform="translate(-2 -0.46)"/></g><g id="O"><path class="cls-2" d="M207.91,198.35a132.12,132.12,0,0,0-46,8A80.6,80.6,0,0,0,129,231.69a116.92,116.92,0,0,0-19,37.55,166.08,166.08,0,0,0-5.91,46.84v10.55a175.71,175.71,0,0,0,8,49.79A221.75,221.75,0,0,0,133.23,422a90.36,90.36,0,0,0,35.44,32.49A112.73,112.73,0,0,0,219.73,465a99.54,99.54,0,0,0,45.15-5.49,79.35,79.35,0,0,0,32.07-27,126.94,126.94,0,0,0,19.41-42.2,199.15,199.15,0,0,0,6.33-51.9,205.62,205.62,0,0,0-6.76-55.7,137.51,137.51,0,0,0-21.52-42.19A84.33,84.33,0,0,0,259,212.28a121,121,0,0,0-51.06-13.08Zm0,284.82a159.71,159.71,0,0,1-57.8-9.7,134.13,134.13,0,0,1-47.26-30A126.6,126.6,0,0,1,71.2,395.83,180.9,180.9,0,0,1,59.39,333a169,169,0,0,1,10.54-59.08,136,136,0,0,1,31.65-48.94A126.47,126.47,0,0,1,151,192.45a181.25,181.25,0,0,1,64.56-11,182.4,182.4,0,0,1,60.34,9.28,137.86,137.86,0,0,1,48.52,27.43,109.23,109.23,0,0,1,32.07,42.19A160.61,160.61,0,0,1,367,321.14,165.46,165.46,0,0,1,355.6,385.7a148.94,148.94,0,0,1-35,51.48,146.46,146.46,0,0,1-51.06,34.6A168.79,168.79,0,0,1,207.91,483.17Z" transform="translate(-2 -0.46)"/></g></svg>