<?xml version="1.0" encoding="utf-8"?>
<!-- Generator: Adobe Illustrator 25.2.1, SVG Export Plug-In . SVG Version: 6.00 Build 0)  -->
<svg version="1.1" id="Layer_2" xmlns="http://www.w3.org/2000/svg" xmlns:xlink="http://www.w3.org/1999/xlink" x="0px" y="0px"
	 viewBox="0 0 236.7 205.6" style="enable-background:new 0 0 236.7 205.6; color:#1d345d;" xml:space="preserve">
<g>
	<path fill="#1d345d" d="M121.8,2.8c-1.9-0.6-4-0.4-6,0.5c0.5-0.3,1.1-0.5,1.6-0.7C119,2.2,120.4,2.3,121.8,2.8z"/>
</g>
<g>
	<path fill="#1d345d" d="M213.2,45.4c-3-1.4-6-2.8-9-4.2c-7.1-3.3-14.3-6.7-21.4-10c-8.7-4.1-17.4-8.1-26-12.2c-7.5-3.5-14.9-7-22.4-10.5
		c-3.7-1.7-7.3-3.4-11-5.1c0,0-0.1,0-0.2-0.1c-0.3-0.1-0.6-0.3-1-0.4c-0.1,0-0.1,0-0.2-0.1c-0.1,0-0.2-0.1-0.3-0.1
		c-1.9-0.6-4-0.4-6,0.5c0,0,0,0,0,0c0,0-0.1,0-0.1,0.1c-3,1.4-6,2.8-9,4.2c-7.1,3.3-14.3,6.7-21.4,10c-8.7,4-17.4,8.1-26,12.2
		c-7.5,3.5-14.9,7-22.4,10.5c-3.6,1.7-7.4,3.3-11,5.1c0,0-0.1,0-0.2,0.1c-2.3,1.1-3.7,4-3.7,6.5v2.6c0,4.1,3.4,7.5,7.5,7.5h78.8
		c1.2,0,2.4,0,3.6,0v57.1H88.8c-3.9,0-7.7,3.5-7.5,7.5c0.2,4.1,3.3,7.5,7.5,7.5h23.1v44.1c0,3.3,0,6.5,0,9.8h-7.7
		c-3.9,0-7.7,3.5-7.5,7.5c0.2,4.1,3.3,7.5,7.5,7.5h30.3c3.9,0,7.7-3.5,7.5-7.5c-0.2-4.1-3.3-7.5-7.5-7.5h-7.6v-53.8h22.9
		c3.9,0,7.7-3.4,7.5-7.5c-0.2-4.1-3.3-7.5-7.5-7.5h-22.9V71.8c0-3.3,0-6.5,0-9.8h71.3c3.6,0,7.3,0.1,10.9,0h0.1
		c4.1,0,7.5-3.4,7.5-7.5v-2.6C216.9,49.4,215.5,46.5,213.2,45.4z M130.5,47c-3.6,0-7.3-0.1-10.9,0h-62c2-1,4.1-1.9,6.1-2.9
		c8.7-4.1,17.4-8.1,26-12.2c7.5-3.5,14.9-7,22.4-10.5c2.5-1.2,5-2.2,7.4-3.4c1.7,0.8,3.4,1.6,5.1,2.4c7.1,3.3,14.3,6.7,21.4,10
		c8.7,4,17.3,8.1,26,12.2c3.1,1.5,6.2,2.9,9.3,4.3H130.5z"/>
</g>
<g>
	<path fill="#1d345d" d="M71.9,202.8c-1.8,0.6-4.2,0.2-5.8-0.8c-1.8-1-2.8-2.6-3.4-4.5c-0.5-1.5-1.1-2.9-1.6-4.4c-3.1-8.4-6.2-16.8-9.4-25.2H29.3
		c-3.6,9.9-7.1,19.8-10.7,29.7c-1.4,4-5,6.2-9.2,5.2c-3.8-0.8-6.6-5.5-5.2-9.2c0.5-1.5,1-2.9,1.6-4.4c3.5-9.6,6.9-19.2,10.3-28.8
		c-0.3-0.7-0.5-1.5-0.8-2.2c-3.7-9.8-7.4-19.7-11.1-29.5c-1.5-3.9,1.7-8.1,5.2-9.2c1.8-0.6,4.2-0.2,5.8,0.8c1.8,1,2.7,2.6,3.4,4.5
		c0.5,1.4,1.1,2.8,1.6,4.2c3,8,6,16,9,24h27.7c3.5,0,6.1,2.4,7.2,5.5c0.5,1.5,1.1,2.9,1.6,4.4c3.8,10.2,7.6,20.5,11.4,30.8
		C78.6,197.5,75.5,201.6,71.9,202.8z"/>
</g>
<g>
	<path fill="#1d345d" d="M229.5,202.8c-1.8,0.6-4.2,0.2-5.8-0.8c-1.8-1-2.8-2.6-3.4-4.5c-0.5-1.5-1.1-2.9-1.6-4.3c-3-8.4-6.1-16.9-9.1-25.3h-22.4
		c-3.7,9.9-7.3,19.8-11,29.7c-1.5,4-5,6.2-9.2,5.2c-1.8-0.4-3.6-1.9-4.5-3.4c-0.9-1.5-1.4-4-0.8-5.8c0.5-1.5,1.1-2.9,1.6-4.4
		c3.8-10.3,7.6-20.5,11.4-30.8c1.2-3.1,3.7-5.5,7.2-5.5h27.7c3.5-9.4,7-18.8,10.6-28.2c1.5-3.9,5-6.2,9.2-5.2
		c1.8,0.4,3.6,1.9,4.5,3.4c0.9,1.5,1.4,4.1,0.8,5.8c-0.5,1.4-1,2.8-1.6,4.2c-3.5,9.2-6.9,18.4-10.3,27.6c0.3,0.8,0.5,1.5,0.8,2.3
		c3.7,10.3,7.4,20.5,11.1,30.8C236.2,197.5,233.1,201.6,229.5,202.8z"/>
</g>
</svg>
